<svg id="icons" width="50" height="50" version="1.1" viewBox="0 0 50 50" xmlns="http://www.w3.org/2000/svg">

	<g id="sheet">
		<path d="m33 5v12h12zm-25 1c-1 0-2 1-2 2v34c0 1 1 2 2 2h34c1 0 2-1 2-2v-23h-13v-13z"/>
	</g>

	<g id="pen">
		<path d="m39.184 5.0156c-1.7868-0.0031-3.6004 0.91682-5.1914 2.5078l-21.922 21.92c1e-6 0 2.1227-0.70741 5.6582 2.8281 3.5355 3.5355 2.8281 5.6582 2.8281 5.6582l21.92-21.922c2.8284-2.8284 3.5355-6.363 0.70703-9.1914-1.2374-1.2374-2.6103-1.7984-4-1.8008zm-26.67 26.285c-0.7955-0.08839-1.1504 0.26367-1.1504 0.26367-5.6569 5.6569-6.3633 13.436-6.3633 13.436s7.7787-0.70643 13.436-6.3633c0 0 1.4144-1.4156-2.1211-4.9512-1.7678-1.7678-3.0053-2.2964-3.8008-2.3848z"/>
	</g>

	<g id="trashbin">
		<path d="m20 0c-2 0-2 2-2 2v2h-9c-4 0-4 4-4 4v2h40v-2s0-4-4-4h-9v-2s0-2-2-2zm-14 12v3s2 29 3 32 3 3 4 3h24c0.99966-0.02594 3 0 4-3s3-32 3-32v-3zm9 5c1.108 0 2 0.892 2 2v24c0 1.108-0.892 2-2 2s-2-0.892-2-2v-24c0-1.108 0.892-2 2-2zm10 0c1.108 0 2 0.892 2 2v24c0 1.108-0.892 2-2 2s-2-0.892-2-2v-24c0-1.108 0.892-2 2-2zm10 0c1.108 0 2 0.892 2 2v24c0 1.108-0.892 2-2 2s-2-0.892-2-2v-24c0-1.108 0.892-2 2-2z"/>
	</g>

	<g id="tribar">
		<path d="m6 6v8h38v-8zm0 15v8h38v-8zm0 15v8h38v-8z"/>
	</g>

	<g id="bulb">
		<path d="m25 0c-8.2843 0-15 7-15 15s9 21 9 21h12s9-13 9-21-6.7157-15-15-15zm-3.0156 15.986c0.56375-0.008805 1.0233 0.4499 1.0156 1.0137v2h1v-2c-0.0076-0.55153 0.43286-1.0051 0.98438-1.0137 0.56375-0.008805 1.0233 0.4499 1.0156 1.0137v2h1v-2c-0.0076-0.55153 0.43286-1.0051 0.98438-1.0137 0.56375-0.008805 1.0233 0.4499 1.0156 1.0137v2h4.3867l-4.4375 13.316c-0.42168 1.266-2.3201 0.6332-1.8984-0.63281l3.5605-10.684h-1.6113v2c0.01912 1.3523-2.0191 1.3523-2 0v-2h-1v2c0.01912 1.3523-2.0191 1.3523-2 0v-2h-1v2c0.01912 1.3523-2.0191 1.3523-2 0v-2h-1.6113l3.5605 10.684c0.42226 1.2658-1.4762 1.8986-1.8984 0.63281l-4.4375-13.316h4.3867v-2c-0.0076-0.55153 0.43286-1.0051 0.98438-1.0137zm-3.9844 22.014-1 1 1 1-1 1 1 1-1 1 1 1-1 1 2 1 1 2h2s1 2 3 2 3-2 3-2h2l1-2 2-1-1-1 1-1-1-1 1-1-1-1 1-1-1-1z"/>
	</g>

</svg>
